<!-- sample rectangle -->
<svg viewBox="0 0 36 43" fill="none" xmlns="http://www.w3.org/2000/svg" class="h-lg w-lg"><path d="M16 4.277a4 4 0 0 1 4 0l13.322 7.691a4 4 0 0 1 2 3.464v15.381a4 4 0 0 1-2 3.465L20 41.968a4 4 0 0 1-4 0L2.68 34.278a4 4 0 0 1-2-3.465v-15.38a4 4 0 0 1 2-3.465L16 4.278Z" fill="#079F31"></path><path d="M16 1.155a4 4 0 0 1 4 0l13.322 7.69a4 4 0 0 1 2 3.464v15.382a4 4 0 0 1-2 3.464L20 38.845a4 4 0 0 1-4 0L2.68 31.155a4 4 0 0 1-2-3.465V12.31a4 4 0 0 1 2-3.465L16 1.155Z" fill="#19C84A"></path><path opacity="0.45" fill-rule="evenodd" clip-rule="evenodd" d="M20.166 4.503a4 4 0 0 0-3.906 0L6.047 10.216A4 4 0 0 0 4 13.707v2.392a4 4 0 0 1 1.864-2.293l13.873-7.761a3.999 3.999 0 0 1 2.301-.494l-1.872-1.048Z" fill="#fff"></path><g filter="url(#xp_svg__a)" fill="#fff"><path d="M9 24.003c0 .618.502.997.975.997.474 0 .753-.21 1.045-.59l2.257-2.963 2.285 3.02c.265.35.53.533.99.533.612 0 1.058-.463 1.058-1.067 0-.31-.153-.59-.32-.801l-2.62-3.244 2.48-3.062c.21-.267.32-.52.32-.829a.984.984 0 0 0-.974-.997c-.474 0-.753.21-1.045.59l-2.118 2.809-2.132-2.865c-.264-.351-.53-.534-.989-.534-.613 0-1.059.463-1.059 1.067 0 .31.154.59.32.801l2.48 3.048-2.633 3.258c-.209.267-.32.52-.32.829ZM19.282 23.919c0 .604.473 1.081 1.072 1.081.6 0 1.073-.477 1.073-1.081v-1.953h1.63c2.188 0 3.943-1.18 3.943-3.455v-.028c0-2.008-1.407-3.399-3.734-3.399h-2.912c-.599 0-1.072.478-1.072 1.082v7.753Zm2.145-3.877v-3.006h1.658c1.073 0 1.742.52 1.742 1.49v.027c0 .843-.627 1.49-1.7 1.49h-1.7Z"></path></g><defs><filter id="xp_svg__a" x="9" y="15" width="18" height="11" filterUnits="userSpaceOnUse" color-interpolation-filters="sRGB"><feFlood flood-opacity="0" result="BackgroundImageFix"></feFlood><feColorMatrix in="SourceAlpha" values="0 0 0 0 0 0 0 0 0 0 0 0 0 0 0 0 0 0 127 0" result="hardAlpha"></feColorMatrix><feOffset dy="1"></feOffset><feComposite in2="hardAlpha" operator="out"></feComposite><feColorMatrix values="0 0 0 0 0 0 0 0 0 0 0 0 0 0 0 0 0 0 0.25 0"></feColorMatrix><feBlend in2="BackgroundImageFix" result="effect1_dropShadow_3000_9555"></feBlend><feBlend in="SourceGraphic" in2="effect1_dropShadow_3000_9555" result="shape"></feBlend></filter></defs></svg>